<?xml version="1.0" encoding="utf-8"?>
<!-- Generator: Adobe Illustrator 25.4.1, SVG Export Plug-In . SVG Version: 6.00 Build 0)  -->
<svg version="1.1" id="Layer_1" xmlns="http://www.w3.org/2000/svg" xmlns:xlink="http://www.w3.org/1999/xlink" x="0px" y="0px"
	 viewBox="0 0 595.28 841.89" style="enable-background:new 0 0 595.28 841.89;" xml:space="preserve">
<style type="text/css">
	.st0{opacity:0.13;}
	.st1{fill:url(#SVGID_1_);}
	.st2{fill:url(#SVGID_00000042719513624120913520000000637941061375402160_);}
	.st3{fill:#BE922D;stroke:#000000;stroke-width:2.5;stroke-miterlimit:10;}
	.st4{fill:url(#SVGID_00000061437240637619443820000007506629440404505481_);}
	.st5{fill:url(#SVGID_00000124130856592247290120000002167681333604167809_);}
	.st6{fill:url(#SVGID_00000143592257788463779140000004878401070492106375_);}
</style>
<path class="st0" d="M346.67,568.26c0,0-58.33-29.67-106.33-30.33c0,0-78.67-6-44.67-27.33c0,0,54-21.33,119.33,0
	c0,0,56.7,17.52,36.02,24.09C351.02,534.69,327.67,548.59,346.67,568.26z"/>
<linearGradient id="SVGID_1_" gradientUnits="userSpaceOnUse" x1="267.7211" y1="427.5967" x2="428.2032" y2="427.5967">
	<stop  offset="0.49" style="stop-color:#9B802F"/>
	<stop  offset="0.5" style="stop-color:#C8972C"/>
</linearGradient>
<path class="st1" d="M346.67,568.26c0,0-4.83-91.67-48.33-135.17c0,0-60-55.17-12-116c0,0,26-33.83,71-29.83
	c0,0,61,3.67,70.33,69.67c0,0,6.67,39.67-27,70.67C400.67,427.6,352.83,477.09,346.67,568.26z"/>
<radialGradient id="SVGID_00000071535150212454003840000001825404396176108987_" cx="346.3599" cy="423.5917" r="79.3671" gradientTransform="matrix(0.9999 0.0109 -0.0311 2.8455 13.183 -785.5055)" gradientUnits="userSpaceOnUse">
	<stop  offset="0.5468" style="stop-color:#BCB7B8"/>
	<stop  offset="0.8453" style="stop-color:#BAB6B7"/>
	<stop  offset="0.9527" style="stop-color:#B5B0B1"/>
	<stop  offset="1" style="stop-color:#B0ACAC"/>
</radialGradient>
<path style="fill:url(#SVGID_00000071535150212454003840000001825404396176108987_);" d="M346.33,531.93c0,0-10-69-48.33-106.67
	c0,0-37.67-35.67-22-81.33c0,0,16.36-49,72.18-52.67c0,0,67.49-2,74.82,72c0,0,4.33,32.67-27.33,62.67
	C395.67,425.93,358,463.59,346.33,531.93z"/>
<circle class="st3" cx="347.96" cy="366.58" r="24.8"/>
<linearGradient id="SVGID_00000052814361770154061960000001172852174125733011_" gradientUnits="userSpaceOnUse" x1="423.7896" y1="360.2068" x2="331.2896" y2="523.7068">
	<stop  offset="0" style="stop-color:#CECDCD"/>
	<stop  offset="0.036" style="stop-color:#DBDADA"/>
	<stop  offset="0.0837" style="stop-color:#E6E5E5"/>
	<stop  offset="0.1437" style="stop-color:#EEEEEE"/>
	<stop  offset="0.254" style="stop-color:#F1F2F2"/>
</linearGradient>
<path style="fill:url(#SVGID_00000052814361770154061960000001172852174125733011_);" d="M346.33,531.93c0,0,9.88-62.67,49.33-106
	c0,0,30.71-25.04,27.19-64.02c0,0-2.19-10.48-10.02-17.15c0,0,18.5,33.17-22.5,76.17c0,0-29.33,27.33-44,82.33V531.93z"/>
<linearGradient id="SVGID_00000049193758493476582680000005671152937042471831_" gradientUnits="userSpaceOnUse" x1="378.2984" y1="285.6116" x2="381.2984" y2="309.1116">
	<stop  offset="0.3399" style="stop-color:#9B802F"/>
	<stop  offset="0.5425" style="stop-color:#A0832F"/>
	<stop  offset="0.7774" style="stop-color:#B08B2E"/>
	<stop  offset="1" style="stop-color:#C8972C"/>
</linearGradient>
<path style="fill:url(#SVGID_00000049193758493476582680000005671152937042471831_);" d="M343.91,287.17c0,0,83.99-5.31,84.29,86.19
	c0,0,1.13-85-84.29-79C343.91,294.35,333.83,294.98,343.91,287.17z"/>
<linearGradient id="SVGID_00000059272974055474540280000001461918958117979027_" gradientUnits="userSpaceOnUse" x1="273.2997" y1="427.8715" x2="476.1166" y2="381.559">
	<stop  offset="0" style="stop-color:#B0AFB0"/>
	<stop  offset="0.2979" style="stop-color:#B1B1B1"/>
	<stop  offset="0.4982" style="stop-color:#B7B7B7"/>
	<stop  offset="0.6698" style="stop-color:#C2C1C1"/>
	<stop  offset="0.8253" style="stop-color:#D2D1D1"/>
	<stop  offset="0.9685" style="stop-color:#E9E8E8"/>
	<stop  offset="1" style="stop-color:#F1F2F2"/>
</linearGradient>
<path style="fill:url(#SVGID_00000059272974055474540280000001461918958117979027_);" d="M346.33,531.93
	c0,0-8.87-68.08-50.77-109.21c0,0-49.13-51.92-4.01-104.19c0,0,36.92-45.5,93.19-18.05c0,0,34.6,15.45,38.26,62.78
	c0,0-1.33-9.33-10.17-18.5c0,0-11.88-29.27-43.19-40.78c-10.45-3.84-21.86-4.37-32.69-1.81c-19.99,4.72-52.73,19.33-55.95,64.41
	c0,0-1.4,31.19,27.67,57.34c0,0,29,27,37.67,79.33V531.93z"/>
</svg>
